<svg xmlns="http://www.w3.org/2000/svg" version="1.1" viewBox="-5.0 -10.0 110.0 135.0">
 <path d="m59.656 9.3633h12.312v12.312h-12.312zm-26.625 67.16 6.1562 4.4727-2.3516 7.2383h-7.6094l-2.3516-7.2383zm-24.254 9.1445 6.1562 4.4727-2.3516 7.2383h-7.6094l-2.3516-7.2383zm4.0859-27.957 6.1562 4.4727-2.3516 7.2383h-7.6094l-2.3516-7.2383zm38.715-36.371c0 0.87109-0.70703 1.5781-1.5781 1.5781s-1.5781-0.70703-1.5781-1.5781v-18.719c0-0.87109 0.70703-1.5781 1.5781-1.5781s1.5781 0.70703 1.5781 1.5781zm-30.238 27.082c0.87109 0 1.5781 0.70703 1.5781 1.5781s-0.70703 1.5781-1.5781 1.5781h-18.719c-0.87109 0-1.5781-0.70703-1.5781-1.5781s0.70703-1.5781 1.5781-1.5781zm27.082 30.238c0-0.87109 0.70703-1.5781 1.5781-1.5781s1.5781 0.70703 1.5781 1.5781v18.719c0 0.87109-0.70703 1.5781-1.5781 1.5781s-1.5781-0.70703-1.5781-1.5781zm30.238-27.082c-0.87109 0-1.5781-0.70703-1.5781-1.5781s0.70703-1.5781 1.5781-1.5781h18.719c0.87109 0 1.5781 0.70703 1.5781 1.5781s-0.70703 1.5781-1.5781 1.5781zm-23.648-17.203c0.86328 0.27734 1.6953 0.625 2.4883 1.0312l4.5781-2.6797 5.1914 5.1914-2.6797 4.5781c0.41016 0.79688 0.75781 1.6289 1.0312 2.4922l5.1328 1.3398v7.3398l-5.1328 1.3398c-0.27734 0.86328-0.625 1.6953-1.0312 2.4883l2.6797 4.5781-5.1914 5.1914-4.5781-2.6797c-0.79688 0.41016-1.6289 0.75781-2.4922 1.0312l-1.3398 5.1328h-7.3398l-1.3398-5.1328c-0.86328-0.27734-1.6953-0.625-2.4922-1.0312l-4.5781 2.6797-5.1914-5.1914 2.6797-4.5781c-0.41016-0.79688-0.75781-1.6289-1.0312-2.4922l-5.1328-1.3398v-7.3398l5.1328-1.3398c0.27734-0.86328 0.62109-1.6953 1.0312-2.4922l-2.6797-4.5781 5.1914-5.1914 4.5781 2.6797c0.79688-0.41016 1.6289-0.75781 2.4922-1.0312l1.3398-5.1328h7.3398zm-5.0117 5.3828c-5.6562 0-10.242 4.5859-10.242 10.242s4.5859 10.242 10.242 10.242 10.242-4.5859 10.242-10.242-4.5859-10.242-10.242-10.242zm31.711 46.957 6.1562 10.664h-12.316zm9.5117-24.629 6.1562 10.664h-12.312zm-24.855 10.465 6.1562 10.664h-12.312zm-57.59-58.469c3.3984 0 6.1562 2.7578 6.1562 6.1562 0 3.4023-2.7578 6.1562-6.1562 6.1562-3.4023 0-6.1562-2.7578-6.1562-6.1562 0-3.3984 2.7578-6.1562 6.1562-6.1562zm8.8008 17.258c3.3984 0 6.1562 2.7578 6.1562 6.1562 0 3.4023-2.7578 6.1562-6.1562 6.1562s-6.1562-2.7578-6.1562-6.1562c0-3.3984 2.7578-6.1562 6.1562-6.1562zm12.473-28.719c3.3984 0 6.1562 2.7578 6.1562 6.1562 0 3.3984-2.7578 6.1562-6.1562 6.1562-3.4023 0-6.1562-2.7578-6.1562-6.1562 0-3.3984 2.7539-6.1562 6.1562-6.1562zm55.016 0h12.312v12.312h-12.312zm-5.6484 25.777h12.312v12.312h-12.312z" fill-rule="evenodd"/>
<text x="0.0" y="117.5" font-size="5.0" font-weight="bold" font-family="Arbeit Regular, Helvetica, Arial-Unicode, Arial, Sans-serif" fill="#000000">Created by Sulistiana</text><text x="0.0" y="122.5" font-size="5.0" font-weight="bold" font-family="Arbeit Regular, Helvetica, Arial-Unicode, Arial, Sans-serif" fill="#000000">from Noun Project</text></svg>