<svg xmlns="http://www.w3.org/2000/svg" version="1.1" viewBox="-5.0 -10.0 110.0 135.0">
 <path d="m39.793 53.656 7.3555-8.6641c-0.83984-0.9375-1.3555-2.1758-1.3555-3.5391 0-1.4609 0.59375-2.7852 1.5508-3.7461 0.95703-0.95703 2.2852-1.5508 3.7461-1.5508 1.4609 0 2.7852 0.59375 3.7461 1.5508 0.95703 0.95703 1.5508 2.2812 1.5508 3.7461 0 0.72266-0.14453 1.4102-0.40625 2.0391 1.3203 0.77734 2.1914 1.293 2.7305 1.6094 0.87891 0.51953 1.7383 1.0273 2.5352 1.4961 0.125-0.16016 0.26172-0.30859 0.40234-0.45312 0.95703-0.95703 2.2852-1.5508 3.7461-1.5508 0.95312 0 1.8516 0.25391 2.625 0.69531 1.8555-2.4219 3.4453-4.5039 4.7969-6.2695 1.2422-1.6289 2.2812-2.9883 3.1328-4.1094-0.95703-0.95703-1.5508-2.2812-1.5508-3.7461 0-1.4609 0.59375-2.7852 1.5508-3.7461 0.95703-0.95703 2.2812-1.5508 3.7461-1.5508 0.94922 0 1.8438 0.25 2.6133 0.6875l4.6367-6.0781 0.76563-1.0039-2.8047 0.26172c-0.39453 0.035156-0.74219-0.25391-0.77734-0.64844-0.035156-0.39453 0.25391-0.74219 0.64844-0.77734l4.3906-0.41406c0.18359-0.027343 0.37891 0.019531 0.53906 0.14062 0.14453 0.10938 0.23438 0.26172 0.26562 0.42578l1.1133 4.2695c0.097656 0.38281-0.13281 0.77344-0.51172 0.87109-0.38281 0.097657-0.77344-0.12891-0.87109-0.51172l-0.75-2.8828-0.83203 1.0938-4.668 6.1211c0.95312 0.95703 1.543 2.2773 1.543 3.7383 0 1.4609-0.59375 2.7852-1.5508 3.7461-0.95703 0.95703-2.2812 1.5508-3.7461 1.5508-0.94531 0-1.8359-0.25-2.6055-0.68359-0.85156 1.1172-1.8945 2.4805-3.1367 4.1094-1.3516 1.7695-2.9414 3.8516-4.8008 6.2734 0.94922 0.95703 1.5352 2.2734 1.5352 3.7305 0 1.4609-0.59375 2.7852-1.5508 3.7461-0.95703 0.95703-2.2812 1.5508-3.7461 1.5508-1.4609 0-2.7852-0.59375-3.7461-1.5508-0.95703-0.95703-1.5508-2.2812-1.5508-3.7461 0-0.73047 0.14844-1.4258 0.41406-2.0586-0.79688-0.47266-1.6523-0.97656-2.5312-1.4961-1.1445-0.67578-2.0938-1.2344-2.7266-1.6094-0.12891 0.16406-0.26953 0.32422-0.41797 0.47266-0.95703 0.95703-2.2812 1.5508-3.7461 1.5508-1.0508 0-2.0273-0.30469-2.8516-0.83203l-7.3555 8.6641c0.83984 0.9375 1.3555 2.1797 1.3555 3.5391 0 1.4609-0.59375 2.7852-1.5508 3.7461-0.95703 0.95703-2.2812 1.5508-3.7461 1.5508-1.0508 0-2.0273-0.30469-2.8516-0.83203l-10.305 12.137c0.35156 0.23828 0.77344 0.37891 1.2266 0.37891h58.219c0.49219 0 0.95703 0.089844 1.3906 0.26953 0.43359 0.17969 0.82812 0.44531 1.1758 0.79297 0.011719 0.011719 0.023437 0.027344 0.035156 0.039063l0.050781 0.050781c0.52734 0.52734 0.86719 1.1719 1.0039 1.8594 0.13672 0.68359 0.066406 1.4023-0.21875 2.0938-0.28516 0.69141-0.75 1.25-1.332 1.6367-0.30859 0.20703-0.65234 0.36719-1.0195 0.46875v6c0 0.39844-0.32031 0.71875-0.71875 0.71875-0.39844 0-0.71875-0.32031-0.71875-0.71875v-5.8633h-5.3047v5.8633c0 0.39844-0.32031 0.71875-0.71875 0.71875-0.39844 0-0.71875-0.32031-0.71875-0.71875v-5.8633l-5.293 0.003907v5.8633c0 0.39844-0.32031 0.71875-0.71875 0.71875s-0.71875-0.32031-0.71875-0.71875v-5.8633h-5.3047v5.8633c0 0.39844-0.32031 0.71875-0.71875 0.71875-0.39844 0-0.71875-0.32031-0.71875-0.71875v-5.8633h-5.3047v5.8633c0 0.39844-0.32031 0.71875-0.71875 0.71875-0.39453 0-0.71875-0.32031-0.71875-0.71875v-5.8633h-5.3047v5.8633c0 0.39844-0.32031 0.71875-0.71875 0.71875-0.39453 0-0.71875-0.32031-0.71875-0.71875v-5.8633h-5.3047v5.8633c0 0.39844-0.32031 0.71875-0.71875 0.71875s-0.71875-0.32031-0.71875-0.71875v-5.8633h-5.3047v5.8633c0 0.39844-0.32031 0.71875-0.71875 0.71875-0.39844 0-0.71875-0.32031-0.71875-0.71875v-5.8633h-5.3008v5.8633c0 0.39844-0.32031 0.71875-0.71875 0.71875-0.39453 0-0.71875-0.32031-0.71875-0.71875v-5.8633h-5.3047v5.8633c0 0.39844-0.32031 0.71875-0.71875 0.71875-0.39453 0-0.71875-0.32031-0.71875-0.71875v-5.8633h-3.1133c-1 0-1.9062-0.40625-2.5664-1.0664-0.65625-0.65625-1.0664-1.5664-1.0664-2.5664v-3.1133h-5.8633c-0.39844 0-0.71875-0.32031-0.71875-0.71875 0-0.39453 0.32031-0.71875 0.71875-0.71875h5.8633v-5.3047h-5.8633c-0.39844 0-0.71875-0.32031-0.71875-0.71875 0-0.39453 0.32031-0.71875 0.71875-0.71875h5.8633v-5.3047h-5.8633c-0.39844 0-0.71875-0.32031-0.71875-0.71875s0.32031-0.71875 0.71875-0.71875h5.8633v-5.3047h-5.8633c-0.39844 0-0.71875-0.32031-0.71875-0.71875 0-0.39844 0.32031-0.71875 0.71875-0.71875h5.8633v-5.3047h-5.8633c-0.39844 0-0.71875-0.32031-0.71875-0.71875 0-0.39453 0.32031-0.71875 0.71875-0.71875h5.8633v-5.3047h-5.8633c-0.39844 0-0.71875-0.32031-0.71875-0.71875 0-0.39844 0.32031-0.71875 0.71875-0.71875h5.8633l0.007812-5.293h-5.8633c-0.39844 0-0.71875-0.32031-0.71875-0.71875 0-0.39453 0.32031-0.71875 0.71875-0.71875h5.8633v-5.3047h-5.8633c-0.39844 0-0.71875-0.32031-0.71875-0.71875 0-0.39844 0.32031-0.71875 0.71875-0.71875h5.8633v-5.3047h-5.8633c-0.39844 0-0.71875-0.32031-0.71875-0.71875 0-0.39844 0.32031-0.71875 0.71875-0.71875h5.8633v-5.3047h-5.8633c-0.39844 0-0.71875-0.32031-0.71875-0.71875 0-0.39844 0.32031-0.71875 0.71875-0.71875h6c0.10156-0.36328 0.26172-0.70703 0.46875-1.0195 0.38672-0.58203 0.94531-1.043 1.6367-1.332 0.69141-0.28516 1.4102-0.35156 2.0938-0.21875 0.6875 0.13672 1.332 0.47656 1.8594 1.0039 0.011719 0.011719 0.023437 0.027344 0.035156 0.039062l0.050781 0.050782c0.34766 0.34766 0.61328 0.74219 0.79297 1.1758 0.17969 0.43359 0.26953 0.89844 0.26953 1.3867v58.219c0 0.21875 0.03125 0.42969 0.09375 0.63281l10.086-11.883c-0.83984-0.9375-1.3555-2.1797-1.3555-3.5391 0-1.4609 0.59375-2.7852 1.5508-3.7461 0.95703-0.95703 2.2812-1.5508 3.7461-1.5508 1.0508 0.007813 2.0312 0.31641 2.8516 0.83984zm11.355 9.9297c-0.75391 0-1.4375 0.30469-1.9336 0.80078-0.49219 0.49609-0.80078 1.1797-0.80078 1.9336 0 0.75391 0.30469 1.4375 0.80078 1.9336s1.1797 0.80078 1.9336 0.80078c0.75391 0 1.4375-0.30469 1.9336-0.80078 0.49609-0.49609 0.80078-1.1797 0.80078-1.9336 0-0.75391-0.30469-1.4375-0.80078-1.9336-0.49609-0.49219-1.1797-0.80078-1.9336-0.80078zm14.188-41.293c-0.75391 0-1.4375 0.30469-1.9336 0.80078-0.49219 0.49219-0.79688 1.1797-0.79688 1.9336s0.30469 1.4375 0.80078 1.9336c0.49219 0.49219 1.1797 0.80078 1.9336 0.80078s1.4375-0.30469 1.9336-0.80078c0.49609-0.49609 0.80078-1.1797 0.80078-1.9336s-0.30469-1.4375-0.80078-1.9336c-0.5-0.49219-1.1836-0.80078-1.9375-0.80078zm14.301-5.1445c-0.75391 0-1.4375 0.30469-1.9336 0.80078-0.49219 0.49609-0.80078 1.1797-0.80078 1.9336 0 0.75391 0.30469 1.4375 0.80078 1.9336s1.1797 0.80078 1.9336 0.80078c0.75391 0 1.4375-0.30469 1.9336-0.80078 0.49609-0.49609 0.80078-1.1797 0.80078-1.9336 0-0.75391-0.30469-1.4375-0.80078-1.9336-0.49219-0.49219-1.1758-0.80078-1.9336-0.80078zm-14.301 18.727c-0.75391 0-1.4375 0.30469-1.9336 0.80078-0.49219 0.49609-0.79688 1.1758-0.79688 1.9336 0 0.75391 0.30469 1.4375 0.80078 1.9336 0.49609 0.49609 1.1797 0.80078 1.9336 0.80078s1.4375-0.30469 1.9336-0.80078c0.49609-0.49609 0.80078-1.1797 0.80078-1.9336s-0.30469-1.4375-0.80078-1.9336c-0.5-0.49609-1.1836-0.80078-1.9375-0.80078zm-28.449 8.2305c-0.75391 0-1.4375 0.30469-1.9336 0.80078s-0.80078 1.1797-0.80078 1.9336 0.30469 1.4375 0.80078 1.9336c0.49219 0.49219 1.1797 0.80078 1.9336 0.80078 0.75391 0 1.4375-0.30469 1.9336-0.80078 0.49219-0.49609 0.80078-1.1797 0.80078-1.9336s-0.30469-1.4375-0.80078-1.9336c-0.49609-0.49609-1.1758-0.80078-1.9336-0.80078zm14.148-16.668c-0.75391 0-1.4375 0.30469-1.9336 0.80078-0.49609 0.49609-0.80078 1.1797-0.80078 1.9336s0.30469 1.4375 0.80078 1.9336c0.49609 0.49609 1.1797 0.80078 1.9336 0.80078s1.4375-0.30469 1.9336-0.80078c0.49609-0.49609 0.80078-1.1797 0.80078-1.9336s-0.30469-1.4375-0.80078-1.9336c-0.49609-0.49219-1.1797-0.80078-1.9336-0.80078zm28.715 12.277c-0.75391 0-1.4375 0.30469-1.9336 0.80078-0.49219 0.49219-0.80078 1.1797-0.80078 1.9336 0 0.75391 0.30469 1.4375 0.80078 1.9336 0.49609 0.49219 1.1797 0.80078 1.9336 0.80078s1.4375-0.30469 1.9336-0.80078c0.49609-0.49609 0.80078-1.1797 0.80078-1.9336 0-0.75391-0.30469-1.4375-0.80078-1.9336-0.49219-0.49219-1.1758-0.80078-1.9336-0.80078zm-14.301 18.727c-0.75391 0-1.4375 0.30469-1.9336 0.80078-0.49609 0.49609-0.80078 1.1797-0.80078 1.9336 0 0.75391 0.30469 1.4375 0.80078 1.9336 0.49219 0.49609 1.1797 0.80078 1.9336 0.80078 0.75391 0 1.4375-0.30469 1.9336-0.80078 0.49219-0.49609 0.80078-1.1797 0.80078-1.9336 0-0.75391-0.30469-1.4375-0.80078-1.9336-0.49609-0.49609-1.1758-0.80078-1.9336-0.80078zm-14.301-8.4375c-0.75391 0-1.4375 0.30469-1.9336 0.80078-0.49219 0.49609-0.80078 1.1797-0.80078 1.9336 0 0.75391 0.30469 1.4375 0.80078 1.9336s1.1797 0.80078 1.9336 0.80078c0.75391 0 1.4375-0.30469 1.9336-0.80078 0.49219-0.49609 0.80078-1.1797 0.80078-1.9336 0-0.75391-0.30469-1.4375-0.80078-1.9336-0.49609-0.49219-1.1797-0.80078-1.9336-0.80078zm-14.148 16.668c-0.75391 0-1.4375 0.30469-1.9336 0.80078s-0.80078 1.1797-0.80078 1.9336 0.30469 1.4375 0.80078 1.9336 1.1797 0.80078 1.9336 0.80078 1.4375-0.30469 1.9336-0.80078c0.49219-0.49219 0.80078-1.1797 0.80078-1.9336s-0.30469-1.4375-0.80078-1.9336c-0.49219-0.49219-1.1758-0.80078-1.9336-0.80078z" fill-rule="evenodd"/>
<text x="0.0" y="117.5" font-size="5.0" font-weight="bold" font-family="Arbeit Regular, Helvetica, Arial-Unicode, Arial, Sans-serif" fill="#000000">Created by Muhammad Syaifuddin</text><text x="0.0" y="122.5" font-size="5.0" font-weight="bold" font-family="Arbeit Regular, Helvetica, Arial-Unicode, Arial, Sans-serif" fill="#000000">from Noun Project</text></svg>