<svg xmlns="http://www.w3.org/2000/svg" viewBox="0 0 60 75" x="0px" y="0px"><path d="M51.932,54H30.068a16.939,16.939,0,0,0,21.864,0Z"/><path d="M3,50H24.273A18.969,18.969,0,0,1,38,22.261V3a1,1,0,0,0-1-1H9V6A3,3,0,0,1,6,9H2L2,49A1,1,0,0,0,3,50ZM16,7H26a1,1,0,0,1,0,2H16a1,1,0,0,1,0-2ZM6,14H34a1,1,0,0,1,0,2H6a1,1,0,0,1,0-2Zm0,5H34a1,1,0,0,1,0,2H6a1,1,0,0,1,0-2Zm0,5H26a1,1,0,0,1,0,2H6a1,1,0,0,1,0-2Zm0,5H22a1,1,0,0,1,0,2H6a1,1,0,0,1,0-2Zm0,5H20a1,1,0,0,1,0,2H6a1,1,0,0,1,0-2Zm0,5H19a1,1,0,0,1,0,2H6a1,1,0,0,1,0-2Zm0,5H20a1,1,0,0,1,0,2H6a1,1,0,0,1,0-2Z"/><path d="M7,6V3.411L3.413,7H6A1,1,0,0,0,7,6Z"/><circle cx="36" cy="34" r="1"/><path d="M41,24A16.98,16.98,0,0,0,28.062,52H30V42a1,1,0,0,1,2,0V52h2V40a1,1,0,0,1,2,0V52h2V42a1,1,0,0,1,2,0V52h2V44a1,1,0,0,1,2,0v8h2V43a1,1,0,0,1,2,0v9h2V40a1,1,0,0,1,2,0V52h1.938A16.98,16.98,0,0,0,41,24ZM51,35a1,1,0,0,1-2,0v-.7l-3.2,2.66A2.965,2.965,0,0,1,46,38a3,3,0,1,1-5.946-.529l-2.106-1.208a2.943,2.943,0,0,1-3.738.13l-3.655,2.439a1,1,0,0,1-1.11-1.664L33.1,34.729a3,3,0,1,1,5.846-.2l2.106,1.208a2.929,2.929,0,0,1,3.467-.309L47.437,33H47a1,1,0,0,1,0-2h3a1,1,0,0,1,1,1Z"/><circle cx="43" cy="38" r="1"/><text x="0" y="75" fill="#000000" font-size="5px" font-weight="bold" font-family="'Helvetica Neue', Helvetica, Arial-Unicode, Arial, Sans-serif">Created by Juicy Fish</text><text x="0" y="80" fill="#000000" font-size="5px" font-weight="bold" font-family="'Helvetica Neue', Helvetica, Arial-Unicode, Arial, Sans-serif">from the Noun Project</text></svg>