<svg xmlns="http://www.w3.org/2000/svg" version="1.1" viewBox="-5.0 -10.0 110.0 135.0">
 <g>
  <path d="m94.445 93.055h-83.336c-2.2969 0-4.168-1.8672-4.168-4.168l0.003906-83.332c0-0.76563-0.62109-1.3906-1.3906-1.3906-0.76953 0-1.3906 0.62109-1.3906 1.3906v83.332c0 3.8281 3.1172 6.9453 6.9453 6.9453h83.332c0.76953 0 1.3906-0.62109 1.3906-1.3906 0-0.76562-0.62109-1.3906-1.3906-1.3906z"/>
  <path d="m10.77 81.902c0.11719 0.03125 0.23047 0.042968 0.34375 0.042968 0.62109 0 1.1836-0.41797 1.3438-1.0469 4.9453-19.375 7.9492-19.82 8.3125-19.789 0.93359 0.042969 2.2148 3.0078 2.9844 4.7773 1.3438 3.1055 2.7383 6.3164 5.4062 6.3359h0.027344c3.5859 0 5.4062-5.6875 7.5156-12.27 0.94531-2.957 2.5117-7.8477 3.5586-8.5312 1.4727 1 3.2227 9.4766 4.168 14.074 1.9531 9.4766 2.9297 13.664 5.5742 13.668h0.003906c2.8633 0 3.9414-4.9297 6.293-19 1.1562-6.9219 3.0703-18.398 4.8516-19.828 1.1836 0.95703 2.8125 7.0664 3.8008 10.766 2.3438 8.7852 3.9492 14.172 7.2773 14.172h0.003906c3.9102 0 5.6602-7.7539 8.4141-21.453 1.3672-6.8047 3.6562-18.195 5.4688-18.828 0.29687 0.082031 3.0234 1.457 6.9727 23.855 0.13281 0.75391 0.85156 1.2539 1.6094 1.1289 0.75391-0.13281 1.2617-0.85547 1.125-1.6094-4.0312-22.887-7.0312-26.148-9.6641-26.148h-0.0625c-3.7695 0.074219-5.4766 7.6562-8.168 21.055-1.4062 6.9961-3.7617 18.703-5.6836 19.223-1.457-0.3125-3.5039-7.9883-4.6055-12.113-2.1914-8.2148-3.5781-12.891-6.4766-12.891h-0.085937c-3.4648 0.10547-4.9492 6.8477-7.5156 22.207-1.0039 6.0195-2.3477 14.055-3.5508 16.293-0.94531-1.7812-2.082-7.2812-2.8594-11.062-2.0781-10.082-3.5195-16.266-6.8398-16.324-2.8594-0.023438-4.2891 4.375-6.25 10.496-1.1602 3.6133-3.3125 10.34-4.8711 10.34h-0.003906c-0.85938-0.007812-2.1211-2.9219-2.875-4.6641-1.3477-3.1055-2.7383-6.3203-5.4023-6.4453-2.7422-0.12891-6.1562 2.375-11.133 21.879-0.19141 0.74219 0.25781 1.5 1.0039 1.6875z"/>
  <path d="m22.223 72.223c0-0.76562-0.625-1.3906-1.3906-1.3906s-1.3906 0.625-1.3906 1.3906v2.7773c0 0.76562 0.625 1.3906 1.3906 1.3906s1.3906-0.625 1.3906-1.3906z"/>
  <path d="m20.832 79.168c-0.76562 0-1.3906 0.625-1.3906 1.3906v2.7773c0 0.76562 0.625 1.3906 1.3906 1.3906s1.3906-0.625 1.3906-1.3906v-2.7773c0-0.76562-0.625-1.3906-1.3906-1.3906z"/>
  <path d="m30.555 76.391c0-0.76562-0.625-1.3906-1.3906-1.3906-0.76562 0-1.3906 0.625-1.3906 1.3906v2.7773c0 0.76562 0.625 1.3906 1.3906 1.3906 0.76563 0 1.3906-0.625 1.3906-1.3906z"/>
  <path d="m29.168 83.332c-0.76562 0-1.3906 0.625-1.3906 1.3906v2.7773c0 0.76562 0.625 1.3906 1.3906 1.3906s1.3906-0.625 1.3906-1.3906v-2.7773c0-0.76562-0.625-1.3906-1.3906-1.3906z"/>
  <path d="m41.668 72.223c0-0.76562-0.625-1.3906-1.3906-1.3906s-1.3906 0.625-1.3906 1.3906v2.7773c0 0.76562 0.625 1.3906 1.3906 1.3906s1.3906-0.625 1.3906-1.3906z"/>
  <path d="m41.668 63.891c0-0.76562-0.625-1.3906-1.3906-1.3906s-1.3906 0.625-1.3906 1.3906v2.7773c0 0.76562 0.625 1.3906 1.3906 1.3906s1.3906-0.625 1.3906-1.3906z"/>
  <path d="m40.277 79.168c-0.76562 0-1.3906 0.625-1.3906 1.3906v2.7773c0 0.76562 0.625 1.3906 1.3906 1.3906s1.3906-0.625 1.3906-1.3906v-2.7773c0-0.76562-0.625-1.3906-1.3906-1.3906z"/>
  <path d="m48.609 83.332v2.7773c0 0.76562 0.62109 1.3906 1.3906 1.3906s1.3906-0.62109 1.3906-1.3906v-2.7773c0-0.76562-0.62109-1.3906-1.3906-1.3906s-1.3906 0.62109-1.3906 1.3906z"/>
  <path d="m62.5 69.445c0-0.76562-0.625-1.3906-1.3906-1.3906s-1.3906 0.625-1.3906 1.3906v2.7773c0 0.76562 0.625 1.3906 1.3906 1.3906s1.3906-0.625 1.3906-1.3906z"/>
  <path d="m62.5 77.777c0-0.76562-0.625-1.3906-1.3906-1.3906s-1.3906 0.625-1.3906 1.3906v2.7773c0 0.76562 0.625 1.3906 1.3906 1.3906s1.3906-0.625 1.3906-1.3906z"/>
  <path d="m61.109 84.723c-0.76562 0-1.3906 0.625-1.3906 1.3906v2.7773c0 0.76562 0.625 1.3906 1.3906 1.3906s1.3906-0.625 1.3906-1.3906v-2.7773c0-0.76562-0.625-1.3906-1.3906-1.3906z"/>
  <path d="m62.5 61.109c0-0.76562-0.625-1.3906-1.3906-1.3906s-1.3906 0.625-1.3906 1.3906v2.7773c0 0.76562 0.625 1.3906 1.3906 1.3906s1.3906-0.625 1.3906-1.3906z"/>
  <path d="m62.5 52.777c0-0.76562-0.625-1.3906-1.3906-1.3906s-1.3906 0.625-1.3906 1.3906v2.7773c0 0.76562 0.625 1.3906 1.3906 1.3906s1.3906-0.625 1.3906-1.3906z"/>
  <path d="m72.223 84.723c-0.76562 0-1.3906 0.625-1.3906 1.3906v2.7773c0 0.76562 0.625 1.3906 1.3906 1.3906s1.3906-0.625 1.3906-1.3906v-2.7773c0-0.76562-0.625-1.3906-1.3906-1.3906z"/>
  <path d="m73.609 77.777c0-0.76562-0.625-1.3906-1.3906-1.3906s-1.3906 0.625-1.3906 1.3906v2.7773c0 0.76562 0.625 1.3906 1.3906 1.3906s1.3906-0.625 1.3906-1.3906z"/>
  <path d="m73.609 69.445c0-0.76562-0.625-1.3906-1.3906-1.3906s-1.3906 0.625-1.3906 1.3906v2.7773c0 0.76562 0.625 1.3906 1.3906 1.3906s1.3906-0.625 1.3906-1.3906z"/>
  <path d="m86.109 80.555c-0.76562 0-1.3906 0.625-1.3906 1.3906v2.7773c0 0.76562 0.625 1.3906 1.3906 1.3906s1.3906-0.625 1.3906-1.3906v-2.7773c0-0.76562-0.625-1.3906-1.3906-1.3906z"/>
  <path d="m87.5 65.277c0-0.76562-0.625-1.3906-1.3906-1.3906s-1.3906 0.625-1.3906 1.3906v2.7773c0 0.76562 0.625 1.3906 1.3906 1.3906s1.3906-0.625 1.3906-1.3906z"/>
  <path d="m87.5 73.609c0-0.76562-0.625-1.3906-1.3906-1.3906s-1.3906 0.625-1.3906 1.3906v2.7773c0 0.76562 0.625 1.3906 1.3906 1.3906s1.3906-0.625 1.3906-1.3906z"/>
  <path d="m87.5 40.277c0-0.76562-0.625-1.3906-1.3906-1.3906s-1.3906 0.625-1.3906 1.3906v2.7773c0 0.76562 0.625 1.3906 1.3906 1.3906s1.3906-0.625 1.3906-1.3906z"/>
  <path d="m87.5 56.945c0-0.76562-0.625-1.3906-1.3906-1.3906s-1.3906 0.625-1.3906 1.3906v2.7773c0 0.76562 0.625 1.3906 1.3906 1.3906s1.3906-0.625 1.3906-1.3906z"/>
  <path d="m87.5 48.609c0-0.76562-0.625-1.3906-1.3906-1.3906s-1.3906 0.625-1.3906 1.3906v2.7773c0 0.76562 0.625 1.3906 1.3906 1.3906s1.3906-0.625 1.3906-1.3906z"/>
  <path d="m94.445 61.109c-0.76562 0-1.3906 0.625-1.3906 1.3906v2.7773c0 0.76562 0.625 1.3906 1.3906 1.3906 0.76563 0 1.3906-0.625 1.3906-1.3906v-2.7773c0-0.76562-0.625-1.3906-1.3906-1.3906z"/>
  <path d="m94.445 69.445c-0.76562 0-1.3906 0.625-1.3906 1.3906v2.7773c0 0.76562 0.625 1.3906 1.3906 1.3906 0.76563 0 1.3906-0.625 1.3906-1.3906v-2.7773c0-0.76563-0.625-1.3906-1.3906-1.3906z"/>
  <path d="m94.445 52.777c-0.76562 0-1.3906 0.625-1.3906 1.3906v2.7773c0 0.76563 0.625 1.3906 1.3906 1.3906 0.76563 0 1.3906-0.625 1.3906-1.3906v-2.7773c0-0.76562-0.625-1.3906-1.3906-1.3906z"/>
  <path d="m94.445 86.109c-0.76562 0-1.3906 0.625-1.3906 1.3906v1.3906c0 0.76562 0.625 1.3906 1.3906 1.3906 0.76563 0 1.3906-0.625 1.3906-1.3906v-1.3906c0-0.76562-0.625-1.3906-1.3906-1.3906z"/>
  <path d="m94.445 77.777c-0.76562 0-1.3906 0.625-1.3906 1.3906v2.7773c0 0.76563 0.625 1.3906 1.3906 1.3906 0.76563 0 1.3906-0.625 1.3906-1.3906v-2.7773c0-0.76562-0.625-1.3906-1.3906-1.3906z"/>
  <path d="m33.332 45.832c9.957 0 18.055-8.0977 18.055-18.055 0-8.2227-5.5273-15.18-13.07-17.348 0.35938-0.625 0.57031-1.332 0.57031-2.0977 0-2.293-1.875-4.168-4.168-4.168h-2.7773c-2.293 0-4.168 1.875-4.168 4.168 0 0.76562 0.20703 1.4727 0.57031 2.0977-7.543 2.168-13.07 9.125-13.07 17.348 0 9.957 8.0977 18.055 18.055 18.055zm-12.5-19.441h1.3906c0.76562 0 1.3906 0.625 1.3906 1.3906s-0.625 1.3906-1.3906 1.3906h-1.3906c-0.76562 0-1.3906-0.625-1.3906-1.3906s0.625-1.3906 1.3906-1.3906zm23.613 0c0.76563 0 1.3906 0.625 1.3906 1.3906s-0.625 1.3906-1.3906 1.3906h-11.109c-0.76563 0-1.3906-0.625-1.3906-1.3906v-12.5c0-0.76562 0.625-1.3906 1.3906-1.3906 0.76562 0 1.3906 0.625 1.3906 1.3906v11.109h9.7227zm-9.7227 13.887c0 0.76562-0.625 1.3906-1.3906 1.3906s-1.3906-0.625-1.3906-1.3906v-1.3906c0-0.76562 0.625-1.3906 1.3906-1.3906s1.3906 0.625 1.3906 1.3906zm-2.7773-30.555c-0.76562 0-1.3906-0.625-1.3906-1.3906s0.625-1.3906 1.3906-1.3906h2.7773c0.76562 0 1.3906 0.625 1.3906 1.3906s-0.625 1.3906-1.3906 1.3906z"/>
 </g>
<text x="0.0" y="117.5" font-size="5.0" font-weight="bold" font-family="Arbeit Regular, Helvetica, Arial-Unicode, Arial, Sans-serif" fill="#000000">Created by I Putu Dicky Adi Pranatha</text><text x="0.0" y="122.5" font-size="5.0" font-weight="bold" font-family="Arbeit Regular, Helvetica, Arial-Unicode, Arial, Sans-serif" fill="#000000">from Noun Project</text></svg>